<svg width="768" height="620" viewBox="0 0 768 620" fill="none" xmlns="http://www.w3.org/2000/svg">
<g clip-path="url(#clip0_24819_2088)">
<path d="M164.07 325.22C163.35 328.18 162.77 330.01 162.46 331.89C159.56 349.16 156.39 366.38 149.08 382.46C141.72 398.65 128.92 405.89 111.33 404.15C103.32 403.36 97.26 398.13 95.78 390.31C93.3 377.17 96.46 364.74 101.58 352.84C108.77 336.12 119.03 321.66 135.66 313.07C140.72 310.46 146.62 309.47 152.72 307.56C153.48 297.15 154.55 286.07 155.07 274.97C157.07 232.54 159.68 190.11 160.47 147.65C160.9 124.41 158.54 101.08 156.68 77.8601C155.56 63.9401 153.24 50.0901 150.94 36.3001C149.64 28.5201 146.55 21.3501 140.64 15.6301C137.48 12.5701 135.29 12.7901 132.52 16.1501C117.01 34.9501 104.6 55.5101 96.74 78.6701C91.12 95.2301 85.86 111.92 79.93 128.36C77.81 134.24 74.65 139.9 71.15 145.11C66.51 152.02 57.48 151.32 54.44 143.58C49.77 131.66 46.04 119.37 42.07 107.19C40.11 101.17 38.52 95.0401 36.69 88.9801C36.18 87.3001 35.41 85.7001 34.32 82.9601C32.63 85.1801 31.34 86.3901 30.62 87.8701C23.8 101.95 17.18 116.14 10.18 130.13C9.29003 131.9 6.14003 134.09 4.73003 133.68C2.73003 133.1 -0.109971 130.19 0.0100286 128.45C0.360029 123.41 1.03003 117.96 3.31003 113.57C11.74 97.3301 20.8 81.4101 29.79 65.4701C32.47 60.7201 36.15 60.1201 39.85 64.2301C42.74 67.4501 45.4 71.4101 46.63 75.5001C51.56 91.9201 55.87 108.53 60.47 125.05C60.97 126.86 61.82 128.58 62.51 130.34C63.14 130.43 63.77 130.53 64.4 130.62C67.77 122.24 71.72 114.03 74.4 105.44C85.14 70.9901 100.47 38.8401 121.58 9.53012C130.78 -3.24988 143.46 -3.14988 153.58 9.79012C159.22 17.0001 162.79 25.2901 164.23 34.3101C172.71 87.3401 175.01 140.6 171.14 194.23C168.97 224.3 168.62 254.49 167.37 284.63C167.09 291.45 167 298.34 165.93 305.05C165.18 309.77 166.83 311.89 170.67 314.07C185.02 322.22 199.59 330.38 210.93 342.5C219.97 352.17 227.75 363.08 235.52 373.85C245.48 387.65 252.04 388.66 263.69 376.3C270.52 369.05 276.09 360.62 282.8 353.23C288.23 347.25 294.04 341.38 300.54 336.65C308.4 330.95 315.25 333.89 318.06 343.3C319.29 347.44 319.99 351.74 320.83 355.98C323.97 371.78 335.3 377.32 349.34 369.31C357.26 364.79 364.48 359.06 372.19 354.14C375.78 351.85 379.6 349.57 383.63 348.37C391.22 346.13 395.19 349.18 396.2 357.24C396.5 359.69 396.46 362.18 396.66 366.26C402.36 363 407.41 360.42 412.14 357.35C424.55 349.29 436.86 341.1 449.05 332.71C450.29 331.86 451.03 329.35 450.96 327.66C449.98 301.38 448.56 275.11 447.82 248.82C447.37 233.03 447.58 217.2 448.21 201.42C448.42 196.26 450.23 190.89 452.45 186.14C460.36 169.25 471.06 164.94 488.93 165.99C500.77 166.68 512.69 169.39 524.15 172.68C544 178.37 554.55 193.97 561.86 211.95C570.01 231.98 566.04 251.72 558.32 270.77C550.02 291.25 536.56 308.43 521.08 323.99C511.82 333.31 502.25 342.32 492.72 351.36C490.68 353.29 488.3 354.92 485.92 356.43C476.75 362.24 474.94 362.44 464.23 359.02C464.04 361.22 463.82 363.27 463.69 365.33C462.96 377.47 462.18 389.6 461.55 401.75C461.22 408.11 461.69 408.37 467.42 406.18C510.65 389.6 553.57 372.16 597.18 356.65C645.52 339.46 694.74 324.9 745.04 314.36C750.05 313.31 755.26 312.8 760.38 312.77C764.12 312.75 767.13 314.77 767.25 319.17C767.37 323.59 764.64 325.08 760.73 325.87C745.4 328.94 729.98 331.7 714.83 335.52C694.33 340.69 673.8 345.97 653.74 352.56C616.75 364.71 580.03 377.7 543.3 390.64C526.19 396.67 509.29 403.31 492.36 409.82C483.2 413.34 474.18 417.22 465.06 420.82C462 422.03 460.43 424.05 460.81 427.3C461.29 431.35 462.05 435.37 462.56 439.42C462.87 441.89 463.08 444.39 463.07 446.87C462.97 467 462.67 487.12 462.71 507.25C462.75 529.23 463.25 551.21 463.16 573.19C463.14 577.54 460.43 581.92 460.59 586.22C460.9 594.64 462.19 603.04 463.41 611.39C463.88 614.61 464.34 617.55 460.85 619.05C457.49 620.49 453.91 619.54 452.78 616.25C450.69 610.19 448.58 603.83 448.3 597.52C447.49 579.22 447.48 560.88 447.37 542.56C447.33 535.75 447.67 528.92 448.3 522.14C448.53 519.63 450.16 517.28 450.96 514.79C451.55 512.95 452.25 510.99 452.17 509.11C451.72 498.13 452.65 486.76 450.07 476.26C446.46 461.53 448.57 446.99 448.06 432.38C447.93 428.62 446.94 427.23 442.91 428.65C426.26 434.49 409.49 439.98 392.87 445.89C389.37 447.14 386.16 449.43 383.12 451.65C379.96 453.95 376.89 455.24 373.71 452.27C370.42 449.21 371.21 445.23 374.12 443.05C378.95 439.44 384.26 436.1 389.88 434.03C408 427.35 426.35 421.28 444.63 415.01C446.94 414.22 448.68 413.48 448.74 410.33C449.07 393.19 449.74 376.06 450.11 358.92C450.19 355.37 449.5 351.81 449.08 347.27C441.66 352.63 435.34 357.42 428.8 361.86C421.37 366.9 413.83 371.78 406.18 376.47C396.6 382.35 382.9 380.1 381.77 363.25C378.34 365.66 375.22 367.71 372.25 369.95C363.53 376.55 354.14 381.77 343.39 384.28C327.17 388.07 315.16 381.61 309.57 365.79C307.7 360.51 306.38 355.04 304.3 347.96C299 353.72 294.39 358.35 290.22 363.35C285.75 368.72 281.99 374.7 277.37 379.91C273.2 384.61 268.6 389.07 263.61 392.88C252.78 401.15 239.32 399.23 230.43 388.17C224.49 380.79 219.2 372.89 213.58 365.25C203.53 351.58 190.31 341.57 176.07 332.72C172.36 330.46 168.73 328.16 164.07 325.22ZM474.83 346.92C476.43 346.04 478.2 345.47 479.43 344.32C490.86 333.68 502.84 323.54 513.41 312.09C531.51 292.49 546.4 271.02 551.71 243.79C555.71 223.25 542.37 197.67 529.3 188.63C518.02 180.83 504.92 179.23 491.76 178.15C474.3 176.72 465.48 183.34 462.02 203.63C460.22 214.18 460.72 225.22 461.06 236.01C461.97 264.64 463.4 293.25 464.49 321.87C464.62 325.28 464.15 328.37 468.44 329.74C469.73 330.15 470.95 332.05 471.41 333.52C472.69 337.59 473.56 341.79 474.83 346.92ZM151.16 321.48C140.99 322.87 134.47 328.37 128.6 334.87C116.07 348.76 107.69 364.5 107.75 383.7C107.77 391.04 110.15 392.68 117.49 391.61C127.54 390.15 134.6 384.41 137.57 375.04C142.34 360.02 146.14 344.69 150.23 329.46C150.86 327.14 150.82 324.64 151.16 321.48Z" fill="black"/>
<path d="M405.35 503.19C408.47 507.18 407.23 510.16 404.32 513.46C400.33 517.98 396.96 523.01 389.77 522.05C386 521.55 382.64 520.44 382.26 516.19C381.91 512.21 384.6 510.64 388.26 509.54C394.1 507.8 399.73 505.32 405.35 503.19Z" fill="black"/>
</g>
<defs>
<clipPath id="clip0_24819_2088">
<rect width="767.23" height="619.69" fill="white"/>
</clipPath>
</defs>
</svg>
